<svg width="160" height="19" viewBox="0 0 160 19" fill="none" xmlns="http://www.w3.org/2000/svg">
<path d="M11.976 15.024H5.688L4.68 18H0.384L6.48 1.152H11.232L17.328 18H12.984L11.976 15.024ZM10.92 11.856L8.832 5.688L6.768 11.856H10.92ZM23.2873 6.504C23.6713 5.88 24.2233 5.376 24.9433 4.992C25.6633 4.608 26.4873 4.416 27.4153 4.416C28.5193 4.416 29.5193 4.696 30.4153 5.256C31.3113 5.816 32.0153 6.616 32.5273 7.656C33.0553 8.696 33.3193 9.904 33.3193 11.28C33.3193 12.656 33.0553 13.872 32.5273 14.928C32.0153 15.968 31.3113 16.776 30.4153 17.352C29.5193 17.912 28.5193 18.192 27.4153 18.192C26.4713 18.192 25.6473 18.008 24.9433 17.64C24.2393 17.256 23.6873 16.752 23.2873 16.128V18H19.1833V0.24H23.2873V6.504ZM29.1433 11.28C29.1433 10.256 28.8553 9.456 28.2793 8.88C27.7193 8.288 27.0233 7.992 26.1913 7.992C25.3753 7.992 24.6793 8.288 24.1033 8.88C23.5433 9.472 23.2633 10.28 23.2633 11.304C23.2633 12.328 23.5433 13.136 24.1033 13.728C24.6793 14.32 25.3753 14.616 26.1913 14.616C27.0073 14.616 27.7033 14.32 28.2793 13.728C28.8553 13.12 29.1433 12.304 29.1433 11.28ZM34.6564 11.28C34.6564 9.904 34.9124 8.696 35.4244 7.656C35.9524 6.616 36.6644 5.816 37.5604 5.256C38.4564 4.696 39.4564 4.416 40.5604 4.416C41.4404 4.416 42.2404 4.6 42.9604 4.968C43.6964 5.336 44.2724 5.832 44.6884 6.456V0.24H48.7924V18H44.6884V16.08C44.3044 16.72 43.7524 17.232 43.0324 17.616C42.3284 18 41.5044 18.192 40.5604 18.192C39.4564 18.192 38.4564 17.912 37.5604 17.352C36.6644 16.776 35.9524 15.968 35.4244 14.928C34.9124 13.872 34.6564 12.656 34.6564 11.28ZM44.6884 11.304C44.6884 10.28 44.4004 9.472 43.8244 8.88C43.2644 8.288 42.5764 7.992 41.7604 7.992C40.9444 7.992 40.2484 8.288 39.6724 8.88C39.1124 9.456 38.8324 10.256 38.8324 11.28C38.8324 12.304 39.1124 13.12 39.6724 13.728C40.2484 14.32 40.9444 14.616 41.7604 14.616C42.5764 14.616 43.2644 14.32 43.8244 13.728C44.4004 13.136 44.6884 12.328 44.6884 11.304ZM64.9854 4.608V18H60.8814V16.176C60.4654 16.768 59.8974 17.248 59.1774 17.616C58.4734 17.968 57.6894 18.144 56.8254 18.144C55.8014 18.144 54.8974 17.92 54.1134 17.472C53.3294 17.008 52.7214 16.344 52.2894 15.48C51.8574 14.616 51.6414 13.6 51.6414 12.432V4.608H55.7214V11.88C55.7214 12.776 55.9534 13.472 56.4174 13.968C56.8814 14.464 57.5054 14.712 58.2894 14.712C59.0894 14.712 59.7214 14.464 60.1854 13.968C60.6494 13.472 60.8814 12.776 60.8814 11.88V4.608H64.9854ZM72.0373 0.24V18H67.9333V0.24H72.0373ZM94.6894 1.152V18H90.5854V11.064H84.2014V18H80.0974V1.152H84.2014V7.752H90.5854V1.152H94.6894ZM96.8361 11.28C96.8361 9.904 97.0921 8.696 97.6041 7.656C98.1321 6.616 98.8441 5.816 99.7401 5.256C100.636 4.696 101.636 4.416 102.74 4.416C103.684 4.416 104.508 4.608 105.212 4.992C105.932 5.376 106.484 5.88 106.868 6.504V4.608H110.972V18H106.868V16.104C106.468 16.728 105.908 17.232 105.188 17.616C104.484 18 103.66 18.192 102.716 18.192C101.628 18.192 100.636 17.912 99.7401 17.352C98.8441 16.776 98.1321 15.968 97.6041 14.928C97.0921 13.872 96.8361 12.656 96.8361 11.28ZM106.868 11.304C106.868 10.28 106.58 9.472 106.004 8.88C105.444 8.288 104.756 7.992 103.94 7.992C103.124 7.992 102.428 8.288 101.852 8.88C101.292 9.456 101.012 10.256 101.012 11.28C101.012 12.304 101.292 13.12 101.852 13.728C102.428 14.32 103.124 14.616 103.94 14.616C104.756 14.616 105.444 14.32 106.004 13.728C106.58 13.136 106.868 12.328 106.868 11.304ZM122.101 4.464C123.669 4.464 124.917 4.976 125.845 6C126.789 7.008 127.261 8.4 127.261 10.176V18H123.181V10.728C123.181 9.832 122.949 9.136 122.485 8.64C122.021 8.144 121.397 7.896 120.613 7.896C119.829 7.896 119.205 8.144 118.741 8.64C118.277 9.136 118.045 9.832 118.045 10.728V18H113.941V4.608H118.045V6.384C118.461 5.792 119.021 5.328 119.725 4.992C120.429 4.64 121.221 4.464 122.101 4.464ZM129.297 11.28C129.297 9.904 129.553 8.696 130.065 7.656C130.593 6.616 131.305 5.816 132.201 5.256C133.097 4.696 134.097 4.416 135.201 4.416C136.145 4.416 136.969 4.608 137.673 4.992C138.393 5.376 138.945 5.88 139.329 6.504V4.608H143.433V18H139.329V16.104C138.929 16.728 138.369 17.232 137.649 17.616C136.945 18 136.121 18.192 135.177 18.192C134.089 18.192 133.097 17.912 132.201 17.352C131.305 16.776 130.593 15.968 130.065 14.928C129.553 13.872 129.297 12.656 129.297 11.28ZM139.329 11.304C139.329 10.28 139.041 9.472 138.465 8.88C137.905 8.288 137.217 7.992 136.401 7.992C135.585 7.992 134.889 8.288 134.313 8.88C133.753 9.456 133.473 10.256 133.473 11.28C133.473 12.304 133.753 13.12 134.313 13.728C134.889 14.32 135.585 14.616 136.401 14.616C137.217 14.616 137.905 14.32 138.465 13.728C139.041 13.136 139.329 12.328 139.329 11.304ZM154.562 4.464C156.13 4.464 157.378 4.976 158.306 6C159.25 7.008 159.722 8.4 159.722 10.176V18H155.642V10.728C155.642 9.832 155.41 9.136 154.946 8.64C154.482 8.144 153.858 7.896 153.074 7.896C152.29 7.896 151.666 8.144 151.202 8.64C150.738 9.136 150.506 9.832 150.506 10.728V18H146.402V4.608H150.506V6.384C150.922 5.792 151.482 5.328 152.186 4.992C152.89 4.64 153.682 4.464 154.562 4.464Z" fill="url(#paint0_linear_90_148)"/>
<defs>
<linearGradient id="paint0_linear_90_148" x1="5.60378" y1="-1.45455" x2="151.63" y2="38.7489" gradientUnits="userSpaceOnUse">
<stop stop-color="#3347FF"/>
<stop offset="0.489583" stop-color="#3687FF"/>
<stop offset="1" stop-color="#9747FF"/>
</linearGradient>
</defs>
</svg>
