<svg width="24" height="24" viewBox="0 0 24 24" fill="none" xmlns="http://www.w3.org/2000/svg">
<path d="M22.8735 7.30561C22.8812 7.14863 22.856 6.99178 22.7995 6.84513C22.743 6.69848 22.6564 6.56527 22.5453 6.45407L17.6308 1.53947C17.5196 1.42832 17.3864 1.34169 17.2398 1.28518C17.0931 1.22866 16.9362 1.2035 16.7792 1.21133C16.6222 1.21915 16.4686 1.25979 16.3283 1.33061C16.188 1.40144 16.0641 1.50088 15.9645 1.62253L11.7488 6.77512L5.64862 8.01797C5.4373 8.06043 5.24026 8.15597 5.07605 8.29559C4.91184 8.43521 4.78585 8.61432 4.70995 8.81606L0.838122 19.0237C0.751084 19.2537 0.73223 19.5039 0.783819 19.7443C0.835409 19.9848 0.955254 20.2052 1.12898 20.3792L3.62606 22.8763C3.80005 23.0501 4.02047 23.1699 4.26088 23.2215C4.50129 23.2731 4.75148 23.2543 4.98145 23.1673L15.1936 19.2937C15.3925 19.2187 15.5694 19.0951 15.7082 18.9342C15.8469 18.7733 15.9432 18.5801 15.9882 18.3724L17.3054 12.3396L22.4624 8.12025C22.5839 8.02063 22.6833 7.89669 22.754 7.7564C22.8248 7.6161 22.8655 7.46255 22.8735 7.30561V7.30561ZM14.5485 17.9341L4.58456 21.7135L3.96853 21.0975L8.62603 16.4399C9.17642 16.7491 9.81972 16.8498 10.4383 16.7236C11.0568 16.5975 11.6093 16.2528 11.9946 15.7528C12.3799 15.2527 12.5723 14.6307 12.5367 14.0004C12.501 13.3701 12.2397 12.7738 11.8004 12.3204C11.3612 11.8669 10.7734 11.5868 10.1446 11.5312C9.51575 11.4756 8.88791 11.6482 8.37589 12.0174C7.86387 12.3867 7.50189 12.9279 7.35615 13.5422C7.21041 14.1564 7.29066 14.8026 7.58222 15.3625L2.90784 20.0369L2.29176 19.4208L6.06876 9.46317L11.9149 8.27207L15.8079 12.1651L14.5485 17.9341ZM8.78517 14.1516C8.78517 13.9291 8.85115 13.7115 8.97477 13.5265C9.09838 13.3415 9.27408 13.1973 9.47965 13.1122C9.68522 13.027 9.91142 13.0048 10.1296 13.0482C10.3479 13.0916 10.5483 13.1987 10.7057 13.3561C10.863 13.5134 10.9701 13.7139 11.0136 13.9321C11.057 14.1503 11.0347 14.3765 10.9495 14.5821C10.8644 14.7876 10.7202 14.9633 10.5352 15.087C10.3502 15.2106 10.1327 15.2766 9.91017 15.2766C9.6118 15.2766 9.32565 15.158 9.11467 14.9471C8.9037 14.7361 8.78517 14.4499 8.78517 14.1516V14.1516ZM16.6785 10.9141L13.1705 7.40625L16.8631 2.89312L21.1917 7.2217L16.6785 10.9141Z" fill="white"/>
</svg>
