<svg width="24" height="24" viewBox="0 0 24 24" fill="none" xmlns="http://www.w3.org/2000/svg">
<path d="M19.5001 15.75V15C19.5001 14.8011 19.5791 14.6103 19.7198 14.4697C19.8604 14.329 20.0512 14.25 20.2501 14.25C20.449 14.25 20.6398 14.329 20.7804 14.4697C20.9211 14.6103 21.0001 14.8011 21.0001 15V22.5H22.5001V15C22.4995 14.4034 22.2623 13.8315 21.8404 13.4097C21.4186 12.9878 20.8466 12.7506 20.2501 12.75C19.8627 12.7525 19.4826 12.8561 19.1476 13.0507C18.844 12.5593 18.3605 12.2059 17.8001 12.0658C17.2397 11.9257 16.6467 12.01 16.1476 12.3007C15.9458 11.9796 15.666 11.7147 15.3342 11.531C15.0024 11.3472 14.6294 11.2506 14.2501 11.25C13.994 11.2526 13.7402 11.2996 13.5001 11.3888V7.5C13.5001 6.90326 13.263 6.33097 12.8411 5.90901C12.4191 5.48705 11.8468 5.25 11.2501 5.25C10.6534 5.25 10.0811 5.48705 9.6591 5.90901C9.23715 6.33097 9.00009 6.90326 9.00009 7.5V15.8287L7.32384 14.6813V14.682C6.86584 14.3473 6.2983 14.1981 5.73491 14.2641C5.17152 14.3302 4.65389 14.6067 4.28571 15.0382C3.91754 15.4697 3.72601 16.0244 3.74949 16.5912C3.77297 17.1579 4.00973 17.6949 4.41234 18.0945L9.24234 22.5L10.2526 21.3915L5.46909 17.028C5.39951 16.9588 5.34434 16.8765 5.30675 16.7859C5.26916 16.6953 5.2499 16.5981 5.25009 16.5C5.25009 16.3607 5.28888 16.2242 5.36211 16.1057C5.43533 15.9872 5.5401 15.8915 5.66468 15.8292C5.78926 15.7669 5.92873 15.7405 6.06745 15.753C6.20617 15.7655 6.33867 15.8164 6.45009 15.9L10.5001 18.6713V7.5C10.5001 7.30109 10.5791 7.11032 10.7198 6.96967C10.8604 6.82902 11.0512 6.75 11.2501 6.75C11.449 6.75 11.6398 6.82902 11.7804 6.96967C11.9211 7.11032 12.0001 7.30109 12.0001 7.5V15.75H13.5001V13.5C13.5001 13.3011 13.5791 13.1103 13.7198 12.9697C13.8604 12.829 14.0512 12.75 14.2501 12.75C14.449 12.75 14.6398 12.829 14.7804 12.9697C14.9211 13.1103 15.0001 13.3011 15.0001 13.5V15.75H16.5001V14.25C16.5001 14.0511 16.5791 13.8603 16.7198 13.7197C16.8604 13.579 17.0512 13.5 17.2501 13.5C17.449 13.5 17.6398 13.579 17.7804 13.7197C17.9211 13.8603 18.0001 14.0511 18.0001 14.25V15.75H19.5001Z" fill="white"/>
<path d="M21 9H16.5V7.5H21V3H3V7.5H6V9H3C2.6023 8.9996 2.221 8.84144 1.93978 8.56022C1.65856 8.279 1.5004 7.8977 1.5 7.5V3C1.5004 2.6023 1.65856 2.221 1.93978 1.93978C2.221 1.65856 2.6023 1.5004 3 1.5H21C21.3977 1.5004 21.779 1.65856 22.0602 1.93978C22.3414 2.221 22.4996 2.6023 22.5 3V7.5C22.4996 7.8977 22.3414 8.279 22.0602 8.56022C21.779 8.84144 21.3977 8.9996 21 9V9Z" fill="white"/>
</svg>
